<?xml version="1.0" standalone="no"?><!DOCTYPE svg PUBLIC "-//W3C//DTD SVG 1.1//EN" "http://www.w3.org/Graphics/SVG/1.1/DTD/svg11.dtd"><svg t="1742868860985" class="icon" viewBox="0 0 1024 1024" version="1.1" xmlns="http://www.w3.org/2000/svg" p-id="9782" xmlns:xlink="http://www.w3.org/1999/xlink" width="256" height="256"><path d="M0 298.666667a42.666667 42.666667 0 0 1 42.666667-42.666667h160a160 160 0 1 1 0 320H170.666667a42.666667 42.666667 0 1 1 0-85.333333h32a74.666667 74.666667 0 1 0 0-149.333334H85.333333v384a42.666667 42.666667 0 1 1-85.333333 0V298.666667z m853.333333 85.333333a170.666667 170.666667 0 0 1 170.666667 170.666667v42.666666a170.666667 170.666667 0 0 1-341.333333 0v-42.666666a170.666667 170.666667 0 0 1 170.666666-170.666667z m0 85.333333a85.333333 85.333333 0 0 0-85.333333 85.333334v42.666666a85.333333 85.333333 0 1 0 170.666667 0v-42.666666a85.333333 85.333333 0 0 0-85.333334-85.333334z m-234.666666-85.333333a213.333333 213.333333 0 0 0-213.333334 213.333333v128a42.666667 42.666667 0 1 0 85.333334 0v-128a128 128 0 0 1 128-128 42.666667 42.666667 0 1 0 0-85.333333z" p-id="9783" fill="#1296db"></path></svg>